<?xml version="1.0" standalone="no"?>
<!DOCTYPE svg PUBLIC "-//W3C//DTD SVG 20010904//EN"
 "http://www.w3.org/TR/2001/REC-SVG-20010904/DTD/svg10.dtd">
<svg version="1.0" xmlns="http://www.w3.org/2000/svg"
 width="42.000000pt" height="40.000000pt" viewBox="0 0 42.000000 40.000000"
 preserveAspectRatio="xMidYMid meet">

<g transform="translate(0.000000,40.000000) scale(0.100000,-0.100000)" stroke="none">
<path d="M112 345 l-93 -44 3 -97 3 -97 95 -53 95 -52 97 51 98 52 0 101 0
100 -94 42 c-52 23 -98 42 -103 42 -4 -1 -50 -21 -101 -45z m189 -13 l83 -38
-83 -46 -84 -46 -56 30 c-119 65 -116 56 -26 100 43 21 80 38 81 38 1 0 39
-17 85 -38z m-103 -145 c14 -11 17 -147 3 -147 -5 0 -44 18 -85 41 l-76 41 0
67 c0 37 3 71 6 74 6 6 119 -51 152 -76z m192 8 l0 -74 -62 -35 c-104 -58 -98
-59 -98 26 l0 74 78 42 c42 23 78 42 80 42 1 0 2 -34 2 -75z"/>
<path d="M70 202 c0 -5 23 -21 50 -36 36 -19 50 -23 50 -14 0 8 -20 24 -45 36
-51 25 -55 26 -55 14z"/>
</g>
</svg>
