<?xml version="1.0" standalone="no"?><!DOCTYPE svg PUBLIC "-//W3C//DTD SVG 1.1//EN" "http://www.w3.org/Graphics/SVG/1.1/DTD/svg11.dtd"><svg t="1621409877556" class="icon" viewBox="0 0 1169 1024" version="1.1" xmlns="http://www.w3.org/2000/svg" p-id="2382" xmlns:xlink="http://www.w3.org/1999/xlink" width="228.3203125" height="200"><defs><style type="text/css"></style></defs><path d="M0 445.217391v289.391305l445.217391 244.869565V690.086957L0 445.217391z" p-id="2383"></path><path d="M489.73913 690.086957v289.391304l145.623189-92.753623V691.014493a21.333333 21.333333 0 0 1 10.202898-17.623189l307.014493-185.507246a31.536232 31.536232 0 0 1 31.536232 0L1113.043478 556.521739V311.652174z" p-id="2384"></path><path d="M289.391304 200.347826L0 400.695652l467.478261 244.869565 289.391304-178.086956-467.478261-267.130435z" p-id="2385"></path><path d="M623.304348 0L222.608696 66.782609l512 289.391304 356.173913-89.043478L623.304348 0z" p-id="2386"></path><path d="M880.231884 930.318841v93.681159l289.391304-177.15942V753.15942l-289.391304 177.159421zM880.231884 808.811594v89.043478l289.391304-177.15942v-89.043478L880.231884 808.811594z" p-id="2387"></path><path d="M662.26087 924.753623l189.217391 99.246377v-93.681159L662.26087 831.072464v93.681159zM662.26087 801.391304l189.217391 99.246377v-89.043478L662.26087 712.347826v89.043478zM1160.347826 611.246377l-190.144927-96.463768-296.811595 173.449275 191.072464 99.246377 295.884058-176.231884z" p-id="2388"></path></svg>