<?xml version="1.0" standalone="no"?>
<!DOCTYPE svg PUBLIC "-//W3C//DTD SVG 20010904//EN"
 "http://www.w3.org/TR/2001/REC-SVG-20010904/DTD/svg10.dtd">
<svg version="1.0" xmlns="http://www.w3.org/2000/svg"
 width="40.000000pt" height="40.000000pt" viewBox="0 0 40.000000 40.000000"
 preserveAspectRatio="xMidYMid meet">

<g transform="translate(0.000000,40.000000) scale(0.100000,-0.100000)" stroke="none">
<path d="M284 315 c-37 -42 -64 -78 -60 -82 7 -7 105 85 137 130 16 21 17 27
6 27 -9 0 -46 -34 -83 -75z"/>
<path d="M36 354 c-13 -13 -16 -43 -16 -169 0 -193 -7 -185 168 -185 68 0 132
5 143 10 17 10 19 22 19 140 0 80 -4 130 -10 130 -6 0 -10 -48 -10 -125 0
-148 13 -137 -160 -133 l-115 3 0 160 0 160 108 3 c139 4 133 22 -8 22 -81 0
-107 -3 -119 -16z"/>
<path d="M80 240 c0 -5 23 -10 50 -10 28 0 50 5 50 10 0 6 -22 10 -50 10 -27
0 -50 -4 -50 -10z"/>
<path d="M80 160 c0 -6 39 -10 96 -10 61 0 93 4 89 10 -3 6 -46 10 -96 10 -53
0 -89 -4 -89 -10z"/>
</g>
</svg>
